<?xml version="1.0" encoding="UTF-8"?>
<svg id="Layer_1" data-name="Layer 1" xmlns="http://www.w3.org/2000/svg" xmlns:xlink="http://www.w3.org/1999/xlink" viewBox="0 0 1080 324">
  <defs>
    <clipPath id="clippath">
      <rect x="-1741.88" y="-1374.88" width="4563.76" height="1080" transform="translate(-294.88 -1374.88) rotate(90)" style="fill: none;"/>
    </clipPath>
  </defs>
  <g style="clip-path: url(#clippath);">
    <rect y="-34.57" width="1080" height="61.73" style="fill: #2e1c5a;"/>
    <rect y="27.16" width="1080" height="61.73" style="fill: #2d1c5a;"/>
    <rect y="88.89" width="1080" height="61.73" style="fill: #2d1c59;"/>
    <rect y="150.62" width="1080" height="61.73" style="fill: #2d1b59;"/>
    <rect y="212.36" width="1080" height="61.73" style="fill: #2c1b59;"/>
    <rect y="274.09" width="1080" height="61.73" style="fill: #2c1b59;"/>
  </g>
  <rect x="50" y="-1290.63" width="980" height="1586.63" style="fill: #fff;"/>
  <rect x="255.42" y="-1218.6" width="1" height="1464.6" style="fill: #cccccb;"/>
  <rect x="99.5" y="-1218.6" width="1" height="1464.6" style="fill: #cccccb;"/>
  <rect x="764.34" y="-1218.6" width="1" height="1464.6" style="fill: #cccccb;"/>
  <rect x="979.5" y="-1219" width="1" height="1465" style="fill: #cccccb;"/>
  <rect x="100" y="245.5" width="880" height="1" style="fill: #cccccb;"/>
  <g>
    <path d="M289.82,162.73h-4.17v2.56h5.6v1.4h-12.91v-1.4h5.56v-2.56h-3.99v-7.46h9.78v1.4h-8.02v1.61h7.69v1.37h-7.69v1.69h8.14v1.39Z" style="fill: #231f20;"/>
    <path d="M305.07,163.52h-12.91v-1.41h5.6v-1.24h-3.96v-3.75h7.94v-1.18h-7.98v-1.35h9.71v3.77h-7.95v1.18h8.23v1.33h-4.28v1.24h5.6v1.41ZM293.82,164.31h1.74v2.63h8.22v1.4h-9.96v-4.03Z" style="fill: #231f20;"/>
    <path d="M317.34,160.97h-6.8v-5.87h6.8v5.87ZM315.98,164.4h-4.03v-1.3h4.07v-1.24h1.74v1.24h4.08v1.3h-4.04c.16,1.09,1.87,2.3,4.57,2.57l-.59,1.32c-2.29-.24-4.03-1.14-4.89-2.32-.87,1.19-2.62,2.06-4.92,2.32l-.6-1.32c2.71-.24,4.44-1.45,4.6-2.57ZM315.62,159.61v-3.14h-3.38v3.14h3.38ZM319.83,154.23h1.72v8.04h-1.72v-8.04Z" style="fill: #231f20;"/>
    <path d="M331.05,156.33h-3.03v-1.4h7.77v1.4h-2.97c.08,1.56,1.27,3.05,3.45,3.64l-.83,1.34c-1.65-.47-2.84-1.48-3.47-2.76-.64,1.41-1.87,2.54-3.61,3.05l-.8-1.38c2.2-.64,3.41-2.24,3.49-3.9ZM329.83,162.1h9.37v3.63h-7.64v1.14h8.06v1.35h-9.75v-3.75h7.6v-1.05h-7.65v-1.33ZM339.18,161.5h-1.72v-7.27h1.72v7.27Z" style="fill: #231f20;"/>
    <path d="M350.47,163.52l.13,1.26c-3.16.61-6.55.63-9.04.63l-.21-1.43c2.55,0,6.07-.02,9.12-.46ZM349.74,158.61c0,2.01-1.64,3.41-3.88,3.41s-3.88-1.4-3.88-3.41c0-2.01,1.66-3.41,3.88-3.41s3.87,1.41,3.88,3.41ZM345.86,160.52c1.25,0,2.18-.72,2.18-1.9s-.93-1.91-2.18-1.91-2.17.73-2.15,1.91c-.01,1.18.92,1.9,2.15,1.9ZM351.31,154.23h1.73v14.14h-1.73v-14.14Z" style="fill: #231f20;"/>
    <path d="M371.78,162.29h-12.86v-1.37h12.86v1.37ZM365.34,154.55c3.09,0,5.08,1.05,5.08,2.74s-1.99,2.73-5.08,2.73c-3.1,0-5.09-1.02-5.09-2.73,0-1.69,1.99-2.73,5.09-2.74ZM365.33,163.21c3.04,0,4.89.92,4.89,2.57,0,1.64-1.85,2.57-4.89,2.56-3.08,0-4.92-.92-4.92-2.56s1.84-2.57,4.92-2.57ZM365.34,158.66c2.05,0,3.3-.47,3.3-1.38s-1.24-1.38-3.3-1.37c-2.07,0-3.3.47-3.29,1.37-.01.9,1.22,1.38,3.29,1.38ZM365.33,167c2.03,0,3.15-.41,3.16-1.22-.01-.83-1.13-1.25-3.16-1.25s-3.16.42-3.15,1.25c-.01.81,1.1,1.23,3.15,1.22Z" style="fill: #231f20;"/>
    <path d="M373.34,155.11h6.27v1.4h-4.55v3.47c2.65-.01,4.12-.1,5.79-.45l.19,1.4c-1.85.39-3.49.46-6.57.47h-1.15v-6.29ZM374.74,162.47h1.73v1.46h5.68v-1.46h1.75v5.67h-9.16v-5.67ZM382.15,166.74v-1.44h-5.68v1.44h5.68ZM383.89,157.37h1.97v1.44h-1.97v2.97h-1.75v-7.54h1.75v3.14Z" style="fill: #231f20;"/>
    <path d="M394.77,166.95v-11.31h3.9c3.38,0,5.41,2.12,5.41,5.65s-2.03,5.67-5.48,5.67h-3.83ZM398.5,165.19c2.36,0,3.56-1.3,3.56-3.9s-1.2-3.88-3.5-3.88h-1.76v7.79h1.7Z" style="fill: #231f20;"/>
    <path d="M406.81,155.1c.62,0,1.15.48,1.15,1.08s-.52,1.08-1.15,1.08-1.16-.48-1.16-1.08.52-1.08,1.16-1.08ZM405.81,158.47h1.99v8.48h-1.99v-8.48Z" style="fill: #231f20;"/>
    <path d="M413.02,159.84c-.85,0-1.47.42-1.47,1,0,.45.35.77,1.21.97l1.44.31c1.6.34,2.38,1.09,2.38,2.3,0,1.6-1.4,2.7-3.61,2.7s-3.44-.96-3.64-2.58h2.02c.13.72.69,1.08,1.62,1.08s1.59-.39,1.59-1.02c0-.49-.39-.81-1.23-.99l-1.37-.29c-1.57-.33-2.39-1.15-2.38-2.36,0-1.57,1.35-2.6,3.42-2.6s3.27.99,3.41,2.53h-1.89c-.12-.63-.65-1.05-1.5-1.05Z" style="fill: #231f20;"/>
    <path d="M417.74,162.74c0-2.59,1.57-4.38,4.05-4.38,2.07,0,3.51,1.21,3.64,3.04h-1.89c-.16-.82-.75-1.44-1.71-1.44-1.24,0-2.07,1.03-2.07,2.75s.81,2.79,2.07,2.79c.88,0,1.54-.52,1.71-1.43h1.89c-.14,1.79-1.5,3.05-3.62,3.05-2.54,0-4.07-1.81-4.07-4.38Z" style="fill: #231f20;"/>
    <path d="M432.35,158.47h1.98v8.48h-1.92v-1.5h-.09c-.39.95-1.28,1.61-2.55,1.61-1.67,0-2.83-1.15-2.83-3.19v-5.4h1.99v5.1c0,1.08.64,1.76,1.61,1.76.88,0,1.82-.63,1.81-1.94v-4.92Z" style="fill: #231f20;"/>
    <path d="M439.56,159.84c-.85,0-1.47.42-1.47,1,0,.45.35.77,1.21.97l1.44.31c1.6.34,2.38,1.09,2.38,2.3,0,1.6-1.4,2.7-3.61,2.7s-3.44-.96-3.64-2.58h2.02c.13.72.69,1.08,1.62,1.08s1.59-.39,1.59-1.02c0-.49-.39-.81-1.23-.99l-1.37-.29c-1.57-.33-2.39-1.15-2.38-2.36,0-1.57,1.35-2.6,3.42-2.6s3.27.99,3.41,2.53h-1.89c-.12-.63-.65-1.05-1.5-1.05Z" style="fill: #231f20;"/>
    <path d="M447.95,159.84c-.85,0-1.47.42-1.47,1,0,.45.35.77,1.21.97l1.44.31c1.6.34,2.38,1.09,2.38,2.3,0,1.6-1.4,2.7-3.61,2.7s-3.44-.96-3.64-2.58h2.02c.13.72.69,1.08,1.62,1.08s1.58-.39,1.59-1.02c0-.49-.39-.81-1.23-.99l-1.37-.29c-1.57-.33-2.39-1.15-2.38-2.36,0-1.57,1.35-2.6,3.42-2.6s3.27.99,3.41,2.53h-1.89c-.12-.63-.65-1.05-1.5-1.05Z" style="fill: #231f20;"/>
    <path d="M454.04,155.1c.62,0,1.15.48,1.15,1.08s-.52,1.08-1.15,1.08-1.16-.48-1.16-1.08.52-1.08,1.16-1.08ZM453.04,158.47h1.99v8.48h-1.99v-8.48Z" style="fill: #231f20;"/>
    <path d="M456.59,162.74c0-2.63,1.58-4.38,4.07-4.38s4.06,1.76,4.06,4.38-1.58,4.38-4.06,4.38-4.07-1.75-4.07-4.38ZM460.66,165.53c1.36,0,2.04-1.24,2.04-2.79s-.68-2.8-2.04-2.8-2.06,1.25-2.06,2.8.68,2.79,2.06,2.79Z" style="fill: #231f20;"/>
    <path d="M468.26,166.95h-1.99v-8.48h1.9v1.44h.11c.39-.95,1.25-1.55,2.52-1.55,1.75,0,2.91,1.16,2.91,3.19v5.4h-1.99v-5.1c0-1.13-.62-1.81-1.66-1.81s-1.8.71-1.8,1.94v4.97Z" style="fill: #231f20;"/>
    <path d="M482.17,161.99c.59-.04,1.8-.09,2.17-.11v-.69c0-.83-.54-1.32-1.54-1.32-.89,0-1.43.4-1.58,1.01h-1.93c.14-1.44,1.44-2.53,3.56-2.53,1.61,0,3.46.66,3.46,2.92v5.67h-1.91v-1.16h-.07c-.36.71-1.16,1.34-2.49,1.34-1.62,0-2.84-.88-2.84-2.55,0-1.92,1.59-2.47,3.16-2.58ZM482.36,165.66c1.21,0,1.98-.8,1.98-1.75v-.7c-.36.02-1.47.09-1.87.13-.95.07-1.55.47-1.55,1.21s.6,1.12,1.43,1.12Z" style="fill: #231f20;"/>
    <path d="M490.2,166.95h-1.99v-8.48h1.9v1.44h.11c.39-.95,1.25-1.55,2.52-1.55,1.75,0,2.91,1.16,2.91,3.19v5.4h-1.99v-5.1c0-1.13-.62-1.81-1.66-1.81s-1.8.71-1.8,1.94v4.97Z" style="fill: #231f20;"/>
    <path d="M497.2,162.72c0-2.83,1.54-4.36,3.51-4.36,1.5,0,2.12.9,2.42,1.51h.08v-4.23h1.99v11.31h-1.95v-1.34h-.12c-.32.62-.97,1.49-2.43,1.49-2,0-3.5-1.59-3.5-4.38ZM501.25,165.47c1.28,0,2.01-1.11,2.01-2.76s-.72-2.72-2.01-2.72-2.02,1.13-2.02,2.72.7,2.76,2.02,2.76Z" style="fill: #231f20;"/>
    <path d="M516.01,155.49c2.96,0,5.19,2.15,5.19,5.81,0,2.05-.7,3.63-1.84,4.62l1.56,2.02h-1.98l-.93-1.19c-.61.24-1.28.37-2,.37-2.98,0-5.19-2.16-5.19-5.81s2.21-5.81,5.19-5.81ZM517.16,163.16l.97,1.26c.64-.67,1.02-1.72,1.02-3.12,0-2.58-1.3-3.98-3.14-3.98s-3.15,1.4-3.15,3.98,1.3,3.98,3.15,3.98c.29,0,.57-.03.84-.1l-1.54-2.02h1.85Z" style="fill: #231f20;"/>
    <path d="M522.58,163.95c0-1.33.86-2.14,2.12-3.02-.65-.81-1.16-1.63-1.16-2.64,0-1.6,1.18-2.79,2.96-2.79s2.87,1.18,2.87,2.56c0,1.08-.56,1.89-1.5,2.58l-.72.52,2.07,2.43c.3-.56.48-1.22.48-1.97h1.71c0,1.55-.43,2.65-.98,3.38l1.65,1.94h-2.15l-.73-.83c-.8.69-1.9,1-2.91,1-2.31,0-3.72-1.37-3.72-3.17ZM526.37,165.48c.61,0,1.23-.21,1.76-.6l-2.36-2.7-.18.13c-.76.56-1.06,1.16-1.06,1.55,0,.89.72,1.61,1.83,1.61ZM526.14,159.96l.65-.44c.59-.39.9-.79.9-1.37,0-.49-.44-1.02-1.15-1.02-.72,0-1.22.57-1.22,1.18,0,.53.35,1.05.82,1.64Z" style="fill: #231f20;"/>
    <path d="M532.44,166.95l3.99-11.31h2.51l3.99,11.31h-2.17l-.94-2.8h-4.26l-.94,2.8h-2.18ZM539.26,162.52l-1.54-4.57h-.09l-1.54,4.57h3.16Z" style="fill: #231f20;"/>
    <path d="M550.67,155.31h1.87c-1.12,1.46-1.99,4.4-1.99,7.02s.87,5.56,1.99,7.02h-1.87c-1.45-1.96-2.19-4.26-2.19-7.02s.73-5.05,2.19-7.02Z" style="fill: #231f20;"/>
    <path d="M558.53,166.95h-2.04v-9.33h-.07l-2.64,1.69v-1.86l2.8-1.81h1.95v11.31Z" style="fill: #231f20;"/>
    <path d="M561.31,163.88h1.98c.07.92.94,1.58,2,1.58,1.27,0,2.18-.91,2.18-2.17s-.93-2.2-2.24-2.21c-.88,0-1.52.3-1.88.97h-1.88l.67-6.4h6.68v1.7h-5l-.34,3.01h.1c.44-.5,1.27-.86,2.2-.86,2.1,0,3.66,1.57,3.66,3.75s-1.7,3.87-4.15,3.87c-2.25,0-3.92-1.35-3.98-3.22Z" style="fill: #231f20;"/>
    <path d="M583.58,162.92h-5.45v2.43h-1.72v-2.43h-5.74v-1.38h12.91v1.38ZM572.23,164.18h1.72v2.48h8.2v1.41h-9.92v-3.89ZM572.35,154.67h1.72v1.59h6.1v-1.59h1.73v5.75h-9.54v-5.75ZM580.16,159.04v-1.48h-6.1v1.48h6.1Z" style="fill: #231f20;"/>
    <path d="M586.38,169.36h-1.87c1.12-1.46,1.99-4.4,1.99-7.02s-.87-5.56-1.99-7.02h1.87c1.45,1.97,2.19,4.26,2.19,7.02s-.74,5.05-2.19,7.02Z" style="fill: #231f20;"/>
  </g>
  <g>
    <g>
      <path d="M279.73,21.91c0-1.18.95-2.13,2.13-2.13s2.13.95,2.13,2.13-.96,2.13-2.13,2.13-2.13-.96-2.13-2.13Z" style="fill: #231f20;"/>
      <path d="M289.14,16.96h3.7c2.28,0,3.49,1.39,3.49,3.28s-1.23,3.27-3.52,3.27h-1.91v3.35h-1.78v-9.91ZM292.59,22.05c1.33,0,1.94-.75,1.94-1.81s-.6-1.79-1.94-1.79h-1.66v3.6h1.67Z" style="fill: #231f20;"/>
      <path d="M297.56,19.44h1.69v1.24h.08c.27-.86.99-1.34,1.83-1.34.19,0,.47.02.63.05v1.6c-.15-.05-.52-.1-.81-.1-.96,0-1.68.67-1.68,1.61v4.38h-1.74v-7.43Z" style="fill: #231f20;"/>
      <path d="M302.13,23.2c0-2.29,1.39-3.86,3.51-3.86,1.82,0,3.4,1.14,3.4,3.75v.54h-5.18c.02,1.28.77,2.03,1.9,2.03.76,0,1.28-.33,1.5-.78h1.7c-.31,1.29-1.5,2.13-3.23,2.13-2.24,0-3.61-1.49-3.61-3.82ZM307.37,22.45c0-1.01-.69-1.75-1.69-1.75s-1.76.8-1.81,1.75h3.5Z" style="fill: #231f20;"/>
      <path d="M313.15,20.64c-.75,0-1.29.37-1.29.88,0,.39.3.68,1.06.85l1.26.27c1.4.3,2.08.95,2.08,2.01,0,1.4-1.22,2.37-3.16,2.37s-3.01-.84-3.19-2.26h1.77c.11.63.6.94,1.42.94s1.39-.34,1.39-.89c0-.43-.34-.71-1.08-.87l-1.2-.25c-1.37-.29-2.09-1.01-2.09-2.07,0-1.37,1.18-2.27,3-2.27s2.86.87,2.99,2.21h-1.65c-.11-.56-.57-.92-1.31-.92Z" style="fill: #231f20;"/>
      <path d="M317.14,23.2c0-2.29,1.39-3.86,3.51-3.86,1.82,0,3.4,1.14,3.4,3.75v.54h-5.18c.02,1.28.77,2.03,1.9,2.03.76,0,1.28-.33,1.5-.78h1.7c-.31,1.29-1.5,2.13-3.23,2.13-2.24,0-3.61-1.49-3.61-3.82ZM322.38,22.45c0-1.01-.69-1.75-1.69-1.75s-1.76.8-1.81,1.75h3.5Z" style="fill: #231f20;"/>
      <path d="M327.01,26.87h-1.74v-7.43h1.66v1.26h.09c.34-.83,1.1-1.36,2.21-1.36,1.53,0,2.54,1.02,2.54,2.8v4.73h-1.74v-4.46c0-.99-.54-1.59-1.45-1.59s-1.58.62-1.58,1.7v4.35Z" style="fill: #231f20;"/>
      <path d="M336.99,20.78h-1.46v3.85c0,.72.35.86.8.87.2,0,.55-.02.76-.03v1.43c-.21.03-.54.07-.99.07-1.31,0-2.32-.65-2.32-2.05v-4.14h-1.05v-1.34h1.05v-1.78h1.74v1.78h1.46v1.34Z" style="fill: #231f20;"/>
      <path d="M340.62,22.52c.52-.03,1.58-.08,1.9-.1v-.6c0-.73-.47-1.16-1.35-1.16-.78,0-1.25.35-1.38.88h-1.69c.13-1.26,1.26-2.21,3.12-2.21,1.41,0,3.03.58,3.03,2.56v4.97h-1.67v-1.02h-.06c-.32.62-1.02,1.17-2.18,1.17-1.42,0-2.49-.77-2.49-2.24,0-1.68,1.39-2.17,2.77-2.26ZM340.79,25.74c1.06,0,1.74-.7,1.74-1.53v-.61c-.32.01-1.29.08-1.63.11-.83.06-1.35.41-1.35,1.06s.52.98,1.25.98Z" style="fill: #231f20;"/>
      <path d="M349.46,20.78h-1.46v3.85c0,.72.35.86.8.87.2,0,.55-.02.76-.03v1.43c-.21.03-.54.07-.99.07-1.31,0-2.32-.65-2.32-2.05v-4.14h-1.05v-1.34h1.05v-1.78h1.74v1.78h1.46v1.34Z" style="fill: #231f20;"/>
      <path d="M351.54,16.49c.55,0,1.01.42,1.01.95s-.46.94-1.01.94-1.02-.42-1.02-.94.46-.95,1.02-.95ZM350.66,19.44h1.74v7.43h-1.74v-7.43Z" style="fill: #231f20;"/>
      <path d="M353.62,23.18c0-2.3,1.39-3.84,3.56-3.84s3.56,1.54,3.56,3.84-1.38,3.83-3.56,3.83-3.56-1.53-3.56-3.83ZM357.19,25.62c1.19,0,1.78-1.08,1.78-2.44s-.59-2.46-1.78-2.46-1.8,1.1-1.8,2.46.59,2.44,1.8,2.44Z" style="fill: #231f20;"/>
      <path d="M363.7,26.87h-1.74v-7.43h1.66v1.26h.09c.34-.83,1.1-1.36,2.21-1.36,1.53,0,2.54,1.02,2.54,2.8v4.73h-1.74v-4.46c0-.99-.54-1.59-1.45-1.59s-1.58.62-1.58,1.7v4.35Z" style="fill: #231f20;"/>
      <path d="M373.08,24.18h1.8c.04.8.84,1.33,1.87,1.33,1.09,0,1.88-.6,1.88-1.47,0-.9-.76-1.53-2.06-1.53h-.88v-1.37h.88c1.05,0,1.79-.59,1.79-1.45s-.63-1.39-1.59-1.39-1.74.52-1.78,1.35h-1.71c.04-1.66,1.55-2.8,3.49-2.8s3.3,1.23,3.29,2.74c0,1.12-.73,1.92-1.81,2.14v.08c1.4.19,2.2,1.08,2.19,2.33,0,1.67-1.55,2.88-3.7,2.88s-3.62-1.15-3.67-2.83Z" style="fill: #231f20;"/>
      <path d="M289.22,46.99h-1.52v-1.7h-2.5v.96h-5.8v-5.6h5.8v.96h2.5v-1.88h1.52v7.27ZM285.04,47.32c2.62,0,4.22.88,4.22,2.38s-1.6,2.37-4.22,2.37c-2.61,0-4.21-.86-4.21-2.37,0-1.5,1.6-2.38,4.21-2.38ZM283.71,45.02v-3.17h-2.8v3.17h2.8ZM285.04,50.9c1.73,0,2.7-.43,2.71-1.2,0-.8-.98-1.21-2.71-1.21-1.72,0-2.7.42-2.69,1.21,0,.77.97,1.2,2.69,1.2ZM287.7,44.05v-1.24h-2.5v1.24h2.5Z" style="fill: #231f20;"/>
      <path d="M298.11,45.32l-.81,1.18c-1.34-.45-2.3-1.35-2.83-2.5-.54,1.31-1.53,2.34-2.96,2.85l-.82-1.2c1.99-.69,2.99-2.34,3-4.11v-1.17h1.52v1.31c0,1.56,1.01,3.03,2.91,3.63ZM296.56,47.39c2.55,0,4.14.86,4.14,2.33s-1.58,2.35-4.14,2.35c-2.58,0-4.19-.85-4.18-2.35,0-1.47,1.6-2.34,4.18-2.33ZM296.56,50.87c1.69,0,2.64-.39,2.64-1.15s-.95-1.14-2.64-1.14-2.67.42-2.66,1.14c0,.76.97,1.15,2.66,1.15ZM299.06,39.72h1.53v3h1.73v1.27h-1.73v3.12h-1.53v-7.39Z" style="fill: #231f20;"/>
      <path d="M305.08,48.23v-3.69h1.49v3.65c1.26-.05,2.55-.14,3.74-.29l.09,1.13c-2.55.42-5.39.47-7.57.46l-.15-1.23c.74,0,1.55,0,2.4-.03ZM309.71,41.88c0,1.1,0,2.66-.35,4.79l-1.5-.12c.29-1.88.32-3.27.33-4.32h-4.85v-1.22h6.37v.88ZM310.96,39.72h1.53v5.03h1.79v1.29h-1.79v6.04h-1.53v-12.35Z" style="fill: #231f20;"/>
      <path d="M325.99,47.86l.12,1.1c-2.77.53-5.73.55-7.92.55l-.18-1.25c2.23,0,5.31-.02,7.99-.4ZM325.35,43.56c0,1.76-1.44,2.99-3.4,2.99s-3.4-1.23-3.4-2.99c0-1.76,1.45-2.99,3.4-2.99s3.39,1.23,3.4,2.99ZM321.96,45.23c1.09,0,1.91-.63,1.91-1.67s-.81-1.67-1.91-1.67-1.9.64-1.89,1.67c0,1.04.8,1.67,1.89,1.67ZM326.72,39.72h1.52v12.38h-1.52v-12.38Z" style="fill: #231f20;"/>
      <path d="M337.5,45.27l-.76,1.2c-1.42-.47-2.44-1.41-3-2.63-.56,1.3-1.6,2.33-3.06,2.83l-.77-1.19c2-.68,3.03-2.31,3.03-3.99v-1.19h1.57v1.19c0,1.63,1.01,3.16,2.98,3.78ZM331.77,47.68h8.43v4.4h-1.52v-3.17h-6.91v-1.22ZM338.68,39.72h1.52v7.4h-1.52v-7.4Z" style="fill: #231f20;"/>
      <path d="M349.92,47.86l.12,1.1c-2.77.53-5.73.55-7.92.55l-.18-1.25c2.23,0,5.31-.02,7.99-.4ZM349.28,43.56c0,1.76-1.44,2.99-3.4,2.99s-3.4-1.23-3.4-2.99c0-1.76,1.45-2.99,3.4-2.99s3.39,1.23,3.4,2.99ZM345.89,45.23c1.09,0,1.91-.63,1.91-1.67s-.81-1.67-1.91-1.67-1.9.64-1.89,1.67c0,1.04.8,1.67,1.89,1.67ZM350.65,39.72h1.52v12.38h-1.52v-12.38Z" style="fill: #231f20;"/>
      <path d="M360.07,41.62v-1.21h1.57v1.21c0,1.72,1,3.35,2.96,4l-.78,1.2c-1.41-.49-2.41-1.48-2.96-2.74-.55,1.35-1.57,2.43-3.02,2.96l-.8-1.2c2.01-.71,3.03-2.46,3.03-4.23ZM359.14,47.9h1.53v2.71h6.99v1.23h-8.53v-3.94ZM367.32,48.77h-1.52v-9.04h1.52v9.04Z" style="fill: #231f20;"/>
      <path d="M379.35,46.95h-1.52v-1.36h-2.95v-1.23h2.95v-1.34h-2.83c-.78,1.97-2.59,3.35-5.28,4.1l-.6-1.2c2.89-.79,4.43-2.25,4.67-4.09h-4.02v-1.24h5.67c0,.43-.03.84-.1,1.23h2.49v-2.08h1.52v7.22ZM375.26,47.09c2.51,0,4.17.94,4.17,2.45,0,1.52-1.67,2.48-4.17,2.47-2.53,0-4.2-.95-4.19-2.47,0-1.51,1.66-2.45,4.19-2.45ZM375.26,50.81c1.63,0,2.65-.45,2.66-1.26,0-.82-1.02-1.27-2.66-1.26-1.66,0-2.68.44-2.68,1.26,0,.82,1.01,1.26,2.68,1.26Z" style="fill: #231f20;"/>
      <path d="M388.3,42.11h-7.34v-1.2h2.92v-1.24h1.51v1.24h2.91v1.2ZM384.64,42.59c1.78,0,3.01.91,3.01,2.26,0,1.35-1.23,2.26-3.01,2.26s-3.04-.9-3.04-2.26c0-1.35,1.24-2.26,3.04-2.26ZM382.47,48.04h8.24v4.04h-1.53v-2.81h-6.71v-1.22ZM384.64,45.93c.93,0,1.56-.39,1.57-1.08,0-.7-.64-1.11-1.57-1.11-.94,0-1.57.41-1.56,1.11,0,.7.62,1.09,1.56,1.08ZM389.18,39.72h1.53v3.28h1.73v1.24h-1.73v3.21h-1.53v-7.74Z" style="fill: #231f20;"/>
      <path d="M400.37,45.51l-.76,1.18c-1.38-.46-2.36-1.39-2.9-2.56-.55,1.29-1.57,2.33-3.04,2.83l-.78-1.2c1.97-.65,3.02-2.29,3.02-3.9v-.17h-2.58v-1.22h6.68v1.22h-2.56v.15c0,1.51,1,3.02,2.91,3.67ZM394.85,47.68h8.43v4.4h-1.52v-3.17h-6.91v-1.22ZM399.66,42.78h2.1v-3.06h1.52v7.37h-1.52v-3.07h-2.1v-1.25Z" style="fill: #231f20;"/>
      <path d="M413.16,42.24h-4.38v-1.21h5.93c0,3.68-1.43,6.81-5.76,8.86l-.8-1.22c3.24-1.54,4.74-3.62,5.01-6.44ZM418.39,52.08h-1.53v-12.35h1.53v12.35Z" style="fill: #231f20;"/>
      <path d="M423.03,42.18v-.33h-2.58v-1.23h6.68v1.23h-2.56v.34c0,1.49,1,3.02,2.91,3.66l-.76,1.2c-1.38-.46-2.36-1.41-2.9-2.58-.55,1.3-1.57,2.34-3.04,2.84l-.78-1.23c1.97-.64,3.02-2.26,3.02-3.9ZM422.28,47.97h1.52v2.64h6.9v1.23h-8.42v-3.88ZM430.39,48.77h-1.52v-4.53h-2.19v-1.23h2.19v-3.27h1.52v9.04Z" style="fill: #231f20;"/>
      <path d="M445.54,48.8h-1.52v-3.07h-2.95c-.59.66-1.47,1.06-2.46,1.06-1.86,0-3.27-1.33-3.26-3.16,0-1.84,1.4-3.16,3.26-3.17.99,0,1.87.4,2.46,1.06h2.95v-1.8h1.52v9.07ZM438.62,45.45c1.02,0,1.79-.71,1.79-1.81s-.77-1.81-1.79-1.81-1.81.71-1.81,1.81.75,1.81,1.81,1.81ZM437.43,47.88h1.52v2.73h6.9v1.23h-8.42v-3.97ZM441.86,43.64c0,.3-.04.59-.12.87h2.28v-1.75h-2.29c.08.28.12.57.12.88Z" style="fill: #231f20;"/>
      <path d="M457.04,41.58c0,1.16,0,2.42-.33,4.17h1.71v1.24h-4.91v5.11h-1.53v-5.11h-4.82v-1.24h8.02c.34-1.68.35-2.94.35-4.05h-7.04v-1.22h8.55v1.1Z" style="fill: #231f20;"/>
      <path d="M459.56,49.91c0-.58.47-1.05,1.06-1.05s1.05.47,1.06,1.05c0,.59-.49,1.06-1.06,1.06s-1.07-.47-1.06-1.06ZM460.62,43.55c.57,0,1.05.47,1.06,1.05,0,.58-.49,1.06-1.06,1.06s-1.07-.47-1.06-1.06c0-.58.47-1.05,1.06-1.05Z" style="fill: #231f20;"/>
      <path d="M468.27,48.23v-3.69h1.49v3.65c1.26-.05,2.55-.14,3.74-.29l.09,1.13c-2.55.42-5.39.47-7.57.46l-.15-1.23c.74,0,1.55,0,2.4-.03ZM472.89,41.88c0,1.1,0,2.66-.35,4.79l-1.5-.12c.29-1.88.32-3.27.33-4.32h-4.85v-1.22h6.37v.88ZM474.15,39.72h1.53v5.03h1.79v1.29h-1.79v6.04h-1.53v-12.35Z" style="fill: #231f20;"/>
      <path d="M482.69,42.24h-4.25v-1.21h5.79c0,3.65-1.31,6.72-5.56,8.83l-.79-1.2c3.2-1.57,4.57-3.66,4.82-6.43ZM488.3,52.08h-1.51v-6.28h-2.61v-1.25h2.61v-4.82h1.51v12.35Z" style="fill: #231f20;"/>
      <path d="M496.96,43.47c0,1.51-1.08,2.63-2.58,2.91v1.82c1.03-.05,2.07-.13,3.03-.26l.11,1.13c-2.59.47-5.42.48-7.54.46l-.22-1.24c.92,0,1.99,0,3.1-.03v-1.87c-1.55-.27-2.62-1.39-2.61-2.92,0-1.76,1.41-2.98,3.36-2.98,1.9,0,3.35,1.23,3.36,2.98ZM493.61,45.15c1.06,0,1.85-.65,1.86-1.69,0-1.04-.8-1.69-1.86-1.69-1.08,0-1.88.65-1.88,1.69,0,1.04.79,1.7,1.88,1.69ZM498.12,39.72h1.52v4.93h1.79v1.28h-1.79v6.14h-1.52v-12.35Z" style="fill: #231f20;"/>
      <path d="M505.07,40.98h2.92v-1.33h1.51v1.33h2.91v1.2h-7.34v-1.2ZM508.75,42.66c1.78,0,3.01.89,3.01,2.21,0,1.33-1.23,2.2-3.01,2.2s-3.04-.88-3.04-2.2c0-1.33,1.22-2.21,3.04-2.21ZM510.82,47.71c2.53,0,4.13.81,4.13,2.19,0,1.35-1.6,2.17-4.13,2.17-2.57,0-4.15-.81-4.14-2.17,0-1.37,1.57-2.19,4.14-2.19ZM508.75,45.93c.93,0,1.56-.38,1.57-1.05,0-.69-.64-1.09-1.57-1.09-.94,0-1.57.41-1.56,1.09,0,.67.62,1.06,1.56,1.05ZM510.82,50.92c1.66,0,2.61-.37,2.61-1.02s-.94-1.02-2.61-1.02-2.64.33-2.63,1.02c0,.65.94,1.03,2.63,1.02ZM516.49,42.89h-1.67v1.41h1.67v1.25h-1.67v2.07h-1.53v-7.89h1.53v1.92h1.67v1.24Z" style="fill: #231f20;"/>
      <path d="M517.03,47.71h11.3v1.24h-4.92v3.14h-1.51v-3.14h-4.87v-1.24ZM527.68,42.28h-10.1v-1.23h4.31v-1.36h1.51v1.36h4.28v1.23ZM522.65,42.84c2.61,0,4.18.74,4.19,2.1,0,1.34-1.58,2.08-4.19,2.09-2.62,0-4.19-.75-4.18-2.09,0-1.36,1.56-2.1,4.18-2.1ZM522.65,45.88c1.7,0,2.6-.32,2.61-.95,0-.64-.91-.97-2.61-.97s-2.61.33-2.6.97c0,.62.89.95,2.6.95Z" style="fill: #231f20;"/>
      <path d="M534.47,48.23v-3.69h1.49v3.65c1.26-.05,2.55-.14,3.74-.29l.09,1.13c-2.55.42-5.39.47-7.57.46l-.15-1.23c.74,0,1.55,0,2.4-.03ZM539.09,41.88c0,1.1,0,2.66-.35,4.79l-1.5-.12c.29-1.88.32-3.27.33-4.32h-4.85v-1.22h6.37v.88ZM540.34,39.72h1.53v5.03h1.79v1.29h-1.79v6.04h-1.53v-12.35Z" style="fill: #231f20;"/>
      <path d="M546.49,43.1v-.82h-2.15v-1.23h5.61v1.23h-2v.82c0,2.09.75,4.18,2.52,5.2l-.89,1.12c-1.15-.68-1.91-1.85-2.34-3.26-.44,1.52-1.22,2.82-2.39,3.54l-.93-1.12c1.79-1.09,2.57-3.32,2.57-5.48ZM549.06,44.03h1.78v-4.08h1.43v11.53h-1.43v-6.22h-1.78v-1.23ZM554.78,52.08h-1.44v-12.35h1.44v12.35Z" style="fill: #231f20;"/>
      <path d="M280.96,74.87h-1.5v-9.91h1.5v9.91Z" style="fill: #231f20;"/>
      <path d="M284.18,74.87h-1.46v-7.43h1.4v1.21h.09c.34-.79,1.07-1.31,2.19-1.31,1.52,0,2.53.97,2.53,2.8v4.73h-1.46v-4.55c0-1.07-.59-1.72-1.57-1.72s-1.73.67-1.73,1.86v4.41Z" style="fill: #231f20;"/>
      <path d="M293.97,74.87h-1.56l-2.69-7.43h1.57l1.87,5.71h.08l1.88-5.71h1.56l-2.7,7.43Z" style="fill: #231f20;"/>
      <path d="M297.12,71.2c0-2.28,1.37-3.86,3.43-3.86,1.69,0,3.3,1.05,3.3,3.73v.52h-5.29c.04,1.42.87,2.22,2.1,2.22.83,0,1.36-.36,1.61-.82h1.48c-.33,1.21-1.47,2.02-3.1,2.02-2.19,0-3.54-1.51-3.54-3.82ZM302.42,70.5c0-1.13-.73-1.96-1.85-1.96-1.17,0-1.93.91-2,1.96h3.85Z" style="fill: #231f20;"/>
      <path d="M307.92,68.49c-.83,0-1.43.44-1.43,1,0,.44.35.75,1.16.94l1.19.27c1.36.31,2.03.97,2.03,2.01,0,1.34-1.14,2.3-3.04,2.3-1.78,0-2.83-.79-3.02-2.18h1.49c.13.68.63,1.01,1.51,1.01.95,0,1.56-.39,1.56-1.02,0-.48-.35-.79-1.15-.97l-1.16-.26c-1.33-.29-2.04-1.01-2.04-2.04,0-1.32,1.15-2.23,2.88-2.23s2.68.85,2.82,2.12h-1.4c-.14-.59-.6-.97-1.41-.97Z" style="fill: #231f20;"/>
      <path d="M315.64,68.6h-1.51v4.08c0,.84.42.99.89.99.21,0,.53-.02.73-.03v1.26c-.19.03-.51.06-.9.06-1.15,0-2.18-.63-2.17-1.98v-4.38h-1.09v-1.17h1.09v-1.78h1.46v1.78h1.51v1.17Z" style="fill: #231f20;"/>
      <path d="M317.66,64.56c.5,0,.91.39.91.87s-.42.87-.91.87-.92-.39-.92-.87.42-.87.92-.87ZM316.92,67.44h1.46v7.43h-1.46v-7.43Z" style="fill: #231f20;"/>
      <path d="M319.9,75.59h1.49c.14.71.8,1.05,1.77,1.05,1.16,0,1.89-.5,1.89-1.66v-1.46h-.1c-.26.48-.79,1.24-2.15,1.24-1.76,0-3.11-1.31-3.11-3.68s1.33-3.73,3.12-3.73c1.38,0,1.89.84,2.15,1.3h.1v-1.2h1.43v7.59c0,1.91-1.44,2.78-3.35,2.78s-3.11-.83-3.25-2.22ZM323.13,73.55c1.24,0,1.93-.91,1.93-2.45s-.68-2.52-1.93-2.52-1.95,1.1-1.95,2.52.67,2.45,1.95,2.45Z" style="fill: #231f20;"/>
      <path d="M330.56,70.55c.5-.03,1.63-.09,1.95-.1v-.6c0-.84-.52-1.32-1.51-1.32-.86,0-1.38.39-1.53.94h-1.46c.14-1.23,1.29-2.12,3.04-2.12,1.19,0,2.92.44,2.92,2.59v4.93h-1.42v-1.02h-.06c-.28.56-.97,1.18-2.2,1.18-1.41,0-2.51-.81-2.51-2.26,0-1.69,1.44-2.12,2.78-2.22ZM330.61,73.87c1.19,0,1.9-.8,1.9-1.68v-.68c-.33.02-1.4.09-1.75.12-.95.07-1.55.43-1.55,1.16s.59,1.08,1.4,1.08Z" style="fill: #231f20;"/>
      <path d="M339.06,68.6h-1.51v4.08c0,.84.42.99.89.99.21,0,.53-.02.73-.03v1.26c-.19.03-.51.06-.9.06-1.15,0-2.18-.63-2.17-1.98v-4.38h-1.09v-1.17h1.09v-1.78h1.46v1.78h1.51v1.17Z" style="fill: #231f20;"/>
      <path d="M341.08,64.56c.5,0,.91.39.91.87s-.42.87-.91.87-.92-.39-.92-.87.42-.87.92-.87ZM340.34,67.44h1.46v7.43h-1.46v-7.43Z" style="fill: #231f20;"/>
      <path d="M344.9,74.87h-1.46v-7.43h1.4v1.21h.09c.34-.79,1.07-1.31,2.19-1.31,1.52,0,2.53.97,2.53,2.8v4.73h-1.46v-4.55c0-1.07-.59-1.72-1.57-1.72s-1.73.67-1.73,1.86v4.41Z" style="fill: #231f20;"/>
      <path d="M351.16,75.59h1.49c.14.71.8,1.05,1.77,1.05,1.16,0,1.89-.5,1.89-1.66v-1.46h-.1c-.26.48-.79,1.24-2.15,1.24-1.76,0-3.11-1.31-3.11-3.68s1.33-3.73,3.12-3.73c1.38,0,1.89.84,2.15,1.3h.1v-1.2h1.43v7.59c0,1.91-1.44,2.78-3.35,2.78s-3.11-.83-3.25-2.22ZM354.39,73.55c1.24,0,1.94-.91,1.94-2.45s-.68-2.52-1.94-2.52-1.95,1.1-1.95,2.52.67,2.45,1.95,2.45Z" style="fill: #231f20;"/>
      <path d="M364.13,74.87h-1.46v-7.43h1.4v1.21h.09c.34-.79,1.07-1.31,2.19-1.31,1.52,0,2.53.97,2.53,2.8v4.73h-1.46v-4.55c0-1.07-.59-1.72-1.57-1.72s-1.73.67-1.73,1.86v4.41Z" style="fill: #231f20;"/>
      <path d="M370.18,71.2c0-2.28,1.37-3.86,3.43-3.86,1.69,0,3.3,1.05,3.3,3.73v.52h-5.29c.04,1.42.87,2.22,2.1,2.22.83,0,1.36-.36,1.61-.82h1.48c-.33,1.21-1.47,2.02-3.1,2.02-2.19,0-3.54-1.51-3.54-3.82ZM375.48,70.5c0-1.13-.73-1.96-1.85-1.96-1.17,0-1.93.91-2,1.96h3.85Z" style="fill: #231f20;"/>
      <path d="M382.93,67.44h1.45v7.43h-1.43v-1.29h-.08c-.34.79-1.1,1.38-2.22,1.38-1.43,0-2.44-.96-2.44-2.8v-4.73h1.46v4.55c0,1.01.61,1.65,1.51,1.65.81,0,1.75-.59,1.75-1.86v-4.34Z" style="fill: #231f20;"/>
      <path d="M386.02,67.44h1.41v1.19h.08c.27-.8,1.02-1.3,1.88-1.3.18,0,.47.01.62.03v1.39c-.12-.03-.46-.09-.76-.09-1.02,0-1.78.7-1.78,1.67v4.53h-1.46v-7.43Z" style="fill: #231f20;"/>
      <path d="M393.32,70.55c.5-.03,1.63-.09,1.95-.1v-.6c0-.84-.52-1.32-1.51-1.32-.86,0-1.38.39-1.53.94h-1.46c.14-1.23,1.29-2.12,3.04-2.12,1.18,0,2.92.44,2.92,2.59v4.93h-1.42v-1.02h-.06c-.28.56-.97,1.18-2.2,1.18-1.41,0-2.51-.81-2.51-2.26,0-1.69,1.44-2.12,2.78-2.22ZM393.37,73.87c1.19,0,1.9-.8,1.9-1.68v-.68c-.33.02-1.4.09-1.75.12-.95.07-1.55.43-1.55,1.16s.58,1.08,1.4,1.08Z" style="fill: #231f20;"/>
      <path d="M399.81,74.87h-1.46v-9.91h1.46v9.91Z" style="fill: #231f20;"/>
      <path d="M404.72,67.44h1.4v1.21h.09c.31-.82,1.04-1.31,2.02-1.31s1.68.49,2,1.31h.08c.35-.8,1.16-1.31,2.23-1.31,1.34,0,2.3.85,2.3,2.54v4.98h-1.46v-4.84c0-1.01-.62-1.43-1.39-1.43-.94,0-1.49.64-1.49,1.53v4.74h-1.45v-4.93c0-.81-.55-1.33-1.35-1.33s-1.52.69-1.52,1.69v4.58h-1.46v-7.43Z" style="fill: #231f20;"/>
      <path d="M416.13,71.2c0-2.28,1.37-3.86,3.43-3.86,1.69,0,3.3,1.05,3.3,3.73v.52h-5.29c.04,1.42.87,2.22,2.1,2.22.83,0,1.36-.36,1.61-.82h1.48c-.33,1.21-1.47,2.02-3.1,2.02-2.19,0-3.54-1.51-3.54-3.82ZM421.43,70.5c0-1.13-.73-1.96-1.85-1.96-1.17,0-1.93.91-2,1.96h3.85Z" style="fill: #231f20;"/>
      <path d="M423.84,71.19c0-2.27,1.36-3.85,3.46-3.85,1.69,0,2.92,1,3.07,2.5h-1.42c-.15-.7-.71-1.28-1.63-1.28-1.2,0-2.01,1-2.01,2.59s.79,2.63,2.01,2.63c.83,0,1.45-.46,1.63-1.27h1.42c-.15,1.45-1.3,2.51-3.05,2.51-2.16,0-3.47-1.59-3.47-3.83Z" style="fill: #231f20;"/>
      <path d="M433.07,74.87h-1.46v-9.91h1.44v3.69h.09c.35-.8,1.04-1.31,2.2-1.31,1.53,0,2.54.95,2.54,2.8v4.73h-1.46v-4.55c0-1.09-.59-1.72-1.58-1.72s-1.78.67-1.78,1.86v4.41Z" style="fill: #231f20;"/>
      <path d="M441.94,70.55c.5-.03,1.63-.09,1.95-.1v-.6c0-.84-.52-1.32-1.51-1.32-.86,0-1.38.39-1.53.94h-1.46c.14-1.23,1.29-2.12,3.04-2.12,1.19,0,2.92.44,2.92,2.59v4.93h-1.42v-1.02h-.06c-.28.56-.97,1.18-2.2,1.18-1.41,0-2.51-.81-2.51-2.26,0-1.69,1.44-2.12,2.78-2.22ZM442,73.87c1.19,0,1.9-.8,1.9-1.68v-.68c-.33.02-1.4.09-1.75.12-.95.07-1.55.43-1.55,1.16s.59,1.08,1.4,1.08Z" style="fill: #231f20;"/>
      <path d="M448.43,74.87h-1.46v-7.43h1.4v1.21h.09c.34-.79,1.07-1.31,2.19-1.31,1.52,0,2.53.97,2.53,2.8v4.73h-1.46v-4.55c0-1.07-.59-1.72-1.57-1.72s-1.73.67-1.73,1.86v4.41Z" style="fill: #231f20;"/>
      <path d="M455.55,64.56c.5,0,.91.39.91.87s-.42.87-.91.87-.92-.39-.92-.87.42-.87.92-.87ZM454.81,67.44h1.46v7.43h-1.46v-7.43Z" style="fill: #231f20;"/>
      <path d="M460.67,68.49c-.83,0-1.43.44-1.43,1,0,.44.35.75,1.16.94l1.19.27c1.36.31,2.03.97,2.03,2.01,0,1.34-1.14,2.3-3.04,2.3-1.78,0-2.83-.79-3.02-2.18h1.49c.13.68.63,1.01,1.51,1.01.95,0,1.56-.39,1.56-1.02,0-.48-.35-.79-1.15-.97l-1.16-.26c-1.33-.29-2.04-1.01-2.04-2.04,0-1.32,1.15-2.23,2.88-2.23s2.68.85,2.82,2.12h-1.4c-.14-.59-.6-.97-1.41-.97Z" style="fill: #231f20;"/>
      <path d="M464.92,67.44h1.4v1.21h.09c.31-.82,1.04-1.31,2.02-1.31s1.68.49,2,1.31h.08c.35-.8,1.16-1.31,2.23-1.31,1.34,0,2.3.85,2.3,2.54v4.98h-1.46v-4.84c0-1.01-.62-1.43-1.39-1.43-.94,0-1.49.64-1.49,1.53v4.74h-1.45v-4.93c0-.81-.55-1.33-1.35-1.33s-1.52.69-1.52,1.69v4.58h-1.46v-7.43Z" style="fill: #231f20;"/>
      <path d="M479.42,68.49c-.83,0-1.43.44-1.43,1,0,.44.35.75,1.16.94l1.19.27c1.36.31,2.03.97,2.03,2.01,0,1.34-1.14,2.3-3.04,2.3-1.78,0-2.83-.79-3.02-2.18h1.49c.13.68.63,1.01,1.51,1.01.95,0,1.56-.39,1.56-1.02,0-.48-.35-.79-1.15-.97l-1.16-.26c-1.33-.29-2.04-1.01-2.04-2.04,0-1.32,1.15-2.23,2.88-2.23s2.68.85,2.82,2.12h-1.4c-.14-.59-.6-.97-1.41-.97Z" style="fill: #231f20;"/>
      <path d="M486.61,71.19c0-2.31,1.37-3.85,3.47-3.85s3.46,1.53,3.46,3.85-1.37,3.83-3.46,3.83-3.47-1.53-3.47-3.83ZM490.09,73.8c1.34,0,1.99-1.19,1.99-2.62s-.64-2.63-1.99-2.63-2.01,1.21-2.01,2.63.65,2.62,2.01,2.62Z" style="fill: #231f20;"/>
      <path d="M498.39,68.6h-1.6v6.26h-1.46v-6.26h-1.15v-1.17h1.15v-.86c0-1.33.85-2.08,2.22-2.08.35,0,.71.04.99.1v1.21c-.27-.04-.48-.05-.61-.05-.77,0-1.13.31-1.13,1.03v.65h1.6v1.17Z" style="fill: #231f20;"/>
      <path d="M502.84,67.44h1.4v1.21h.09c.31-.82,1.04-1.31,2.02-1.31s1.68.49,2,1.31h.08c.35-.8,1.16-1.31,2.23-1.31,1.34,0,2.3.85,2.3,2.54v4.98h-1.46v-4.84c0-1.01-.62-1.43-1.39-1.43-.94,0-1.49.64-1.49,1.53v4.74h-1.45v-4.93c0-.81-.55-1.33-1.35-1.33s-1.52.69-1.52,1.69v4.58h-1.46v-7.43Z" style="fill: #231f20;"/>
      <path d="M514.25,71.2c0-2.28,1.37-3.86,3.43-3.86,1.69,0,3.3,1.05,3.3,3.73v.52h-5.29c.04,1.42.87,2.22,2.1,2.22.83,0,1.36-.36,1.61-.82h1.48c-.33,1.21-1.47,2.02-3.1,2.02-2.19,0-3.54-1.51-3.54-3.82ZM519.55,70.5c0-1.13-.73-1.96-1.85-1.96-1.17,0-1.93.91-2,1.96h3.85Z" style="fill: #231f20;"/>
      <path d="M521.96,71.17c0-2.41,1.33-3.83,3.12-3.83,1.38,0,1.88.84,2.14,1.3h.08v-3.68h1.46v9.91h-1.43v-1.16h-.11c-.27.48-.8,1.3-2.15,1.3-1.8,0-3.11-1.44-3.11-3.85ZM525.4,73.77c1.24,0,1.93-1.06,1.93-2.62s-.68-2.57-1.93-2.57-1.95,1.1-1.95,2.57.67,2.62,1.95,2.62Z" style="fill: #231f20;"/>
      <path d="M531.25,64.56c.5,0,.91.39.91.87s-.42.87-.91.87-.92-.39-.92-.87.42-.87.92-.87ZM530.51,67.44h1.46v7.43h-1.46v-7.43Z" style="fill: #231f20;"/>
      <path d="M537.09,68.6h-1.51v4.08c0,.84.42.99.89.99.21,0,.53-.02.73-.03v1.26c-.19.03-.51.06-.9.06-1.15,0-2.18-.63-2.17-1.98v-4.38h-1.09v-1.17h1.09v-1.78h1.46v1.78h1.51v1.17Z" style="fill: #231f20;"/>
      <path d="M540.8,70.55c.5-.03,1.64-.09,1.95-.1v-.6c0-.84-.52-1.32-1.51-1.32-.86,0-1.38.39-1.53.94h-1.46c.14-1.23,1.29-2.12,3.04-2.12,1.19,0,2.92.44,2.92,2.59v4.93h-1.42v-1.02h-.06c-.28.56-.97,1.18-2.2,1.18-1.41,0-2.51-.81-2.51-2.26,0-1.69,1.44-2.12,2.78-2.22ZM540.86,73.87c1.19,0,1.9-.8,1.9-1.68v-.68c-.33.02-1.4.09-1.75.12-.95.07-1.55.43-1.55,1.16s.58,1.08,1.4,1.08Z" style="fill: #231f20;"/>
      <path d="M549.3,68.6h-1.51v4.08c0,.84.42.99.89.99.21,0,.53-.02.73-.03v1.26c-.19.03-.51.06-.9.06-1.15,0-2.18-.63-2.17-1.98v-4.38h-1.09v-1.17h1.09v-1.78h1.46v1.78h1.51v1.17Z" style="fill: #231f20;"/>
      <path d="M551.33,64.56c.5,0,.92.39.92.87s-.42.87-.92.87-.92-.39-.92-.87.42-.87.92-.87ZM550.59,67.44h1.46v7.43h-1.46v-7.43Z" style="fill: #231f20;"/>
      <path d="M553.35,71.19c0-2.31,1.37-3.85,3.47-3.85s3.46,1.53,3.46,3.85-1.37,3.83-3.46,3.83-3.47-1.53-3.47-3.83ZM556.83,73.8c1.34,0,1.99-1.19,1.99-2.62s-.64-2.63-1.99-2.63-2.01,1.21-2.01,2.63.65,2.62,2.01,2.62Z" style="fill: #231f20;"/>
      <path d="M563.05,74.87h-1.46v-7.43h1.4v1.21h.09c.34-.79,1.07-1.31,2.19-1.31,1.52,0,2.53.97,2.53,2.8v4.73h-1.46v-4.55c0-1.07-.59-1.72-1.57-1.72s-1.73.67-1.73,1.86v4.41Z" style="fill: #231f20;"/>
      <path d="M575.14,70.55c.5-.03,1.63-.09,1.96-.1v-.6c0-.84-.52-1.32-1.51-1.32-.86,0-1.38.39-1.53.94h-1.46c.14-1.23,1.29-2.12,3.04-2.12,1.18,0,2.92.44,2.92,2.59v4.93h-1.42v-1.02h-.06c-.28.56-.97,1.18-2.2,1.18-1.41,0-2.51-.81-2.51-2.26,0-1.69,1.44-2.12,2.78-2.22ZM575.2,73.87c1.19,0,1.9-.8,1.9-1.68v-.68c-.33.02-1.4.09-1.75.12-.95.07-1.55.43-1.55,1.16s.58,1.08,1.4,1.08Z" style="fill: #231f20;"/>
      <path d="M581.63,74.87h-1.46v-7.43h1.4v1.21h.09c.34-.79,1.07-1.31,2.19-1.31,1.52,0,2.53.97,2.53,2.8v4.73h-1.46v-4.55c0-1.07-.59-1.72-1.57-1.72s-1.73.67-1.73,1.86v4.41Z" style="fill: #231f20;"/>
      <path d="M587.68,71.17c0-2.41,1.33-3.83,3.12-3.83,1.38,0,1.88.84,2.14,1.3h.08v-3.68h1.46v9.91h-1.43v-1.16h-.11c-.27.48-.8,1.3-2.15,1.3-1.8,0-3.11-1.44-3.11-3.85ZM591.12,73.77c1.24,0,1.94-1.06,1.94-2.62s-.68-2.57-1.94-2.57-1.95,1.1-1.95,2.57.67,2.62,1.95,2.62Z" style="fill: #231f20;"/>
      <path d="M599.18,71.19c0-2.27,1.36-3.85,3.46-3.85,1.69,0,2.92,1,3.07,2.5h-1.42c-.15-.7-.71-1.28-1.63-1.28-1.2,0-2.01,1-2.01,2.59s.79,2.63,2.01,2.63c.83,0,1.45-.46,1.63-1.27h1.42c-.16,1.45-1.3,2.51-3.05,2.51-2.16,0-3.47-1.59-3.47-3.83Z" style="fill: #231f20;"/>
      <path d="M606.61,71.19c0-2.31,1.37-3.85,3.47-3.85s3.46,1.53,3.46,3.85-1.37,3.83-3.46,3.83-3.47-1.53-3.47-3.83ZM610.09,73.8c1.35,0,1.99-1.19,1.99-2.62s-.64-2.63-1.99-2.63-2.01,1.21-2.01,2.63.65,2.62,2.01,2.62Z" style="fill: #231f20;"/>
      <path d="M616.31,74.87h-1.46v-7.43h1.4v1.21h.09c.34-.79,1.07-1.31,2.19-1.31,1.52,0,2.53.97,2.53,2.8v4.73h-1.46v-4.55c0-1.07-.59-1.72-1.57-1.72s-1.73.67-1.73,1.86v4.41Z" style="fill: #231f20;"/>
      <path d="M625.45,68.49c-.83,0-1.43.44-1.43,1,0,.44.35.75,1.16.94l1.19.27c1.36.31,2.03.97,2.03,2.01,0,1.34-1.14,2.3-3.04,2.3-1.78,0-2.84-.79-3.02-2.18h1.5c.13.68.63,1.01,1.51,1.01.95,0,1.56-.39,1.56-1.02,0-.48-.35-.79-1.15-.97l-1.16-.26c-1.33-.29-2.04-1.01-2.04-2.04,0-1.32,1.15-2.23,2.88-2.23s2.69.85,2.82,2.12h-1.4c-.13-.59-.6-.97-1.41-.97Z" style="fill: #231f20;"/>
      <path d="M629.36,71.19c0-2.27,1.36-3.85,3.46-3.85,1.69,0,2.92,1,3.07,2.5h-1.42c-.15-.7-.71-1.28-1.63-1.28-1.2,0-2.01,1-2.01,2.59s.79,2.63,2.01,2.63c.83,0,1.45-.46,1.63-1.27h1.42c-.16,1.45-1.3,2.51-3.05,2.51-2.16,0-3.47-1.59-3.47-3.83Z" style="fill: #231f20;"/>
      <path d="M637.87,64.56c.5,0,.92.39.92.87s-.42.87-.92.87-.92-.39-.92-.87.42-.87.92-.87ZM637.13,67.44h1.46v7.43h-1.46v-7.43Z" style="fill: #231f20;"/>
      <path d="M639.9,71.19c0-2.31,1.38-3.85,3.47-3.85s3.46,1.53,3.46,3.85-1.37,3.83-3.46,3.83-3.47-1.53-3.47-3.83ZM643.38,73.8c1.34,0,1.99-1.19,1.99-2.62s-.64-2.63-1.99-2.63-2.01,1.21-2.01,2.63.65,2.62,2.01,2.62Z" style="fill: #231f20;"/>
      <path d="M652.85,67.44h1.45v7.43h-1.43v-1.29h-.08c-.34.79-1.1,1.38-2.22,1.38-1.43,0-2.44-.96-2.44-2.8v-4.73h1.46v4.55c0,1.01.61,1.65,1.51,1.65.81,0,1.75-.59,1.75-1.86v-4.34Z" style="fill: #231f20;"/>
      <path d="M658.7,68.49c-.83,0-1.43.44-1.43,1,0,.44.35.75,1.16.94l1.19.27c1.36.31,2.03.97,2.03,2.01,0,1.34-1.14,2.3-3.04,2.3-1.78,0-2.84-.79-3.02-2.18h1.49c.13.68.63,1.01,1.51,1.01.95,0,1.56-.39,1.56-1.02,0-.48-.35-.79-1.15-.97l-1.16-.26c-1.33-.29-2.04-1.01-2.04-2.04,0-1.32,1.15-2.23,2.88-2.23s2.68.85,2.82,2.12h-1.4c-.14-.59-.6-.97-1.41-.97Z" style="fill: #231f20;"/>
      <path d="M664.4,74.87h-1.46v-7.43h1.4v1.21h.09c.34-.79,1.07-1.31,2.19-1.31,1.52,0,2.53.97,2.53,2.8v4.73h-1.46v-4.55c0-1.07-.58-1.72-1.57-1.72s-1.73.67-1.73,1.86v4.41Z" style="fill: #231f20;"/>
      <path d="M670.45,71.2c0-2.28,1.37-3.86,3.43-3.86,1.69,0,3.3,1.05,3.3,3.73v.52h-5.29c.04,1.42.87,2.22,2.1,2.22.83,0,1.37-.36,1.61-.82h1.48c-.33,1.21-1.47,2.02-3.1,2.02-2.19,0-3.54-1.51-3.54-3.82ZM675.75,70.5c0-1.13-.74-1.96-1.85-1.96-1.17,0-1.93.91-2,1.96h3.85Z" style="fill: #231f20;"/>
      <path d="M681.25,68.49c-.83,0-1.43.44-1.43,1,0,.44.35.75,1.16.94l1.19.27c1.36.31,2.03.97,2.03,2.01,0,1.34-1.14,2.3-3.04,2.3-1.78,0-2.83-.79-3.02-2.18h1.49c.13.68.63,1.01,1.51,1.01.95,0,1.56-.39,1.56-1.02,0-.48-.35-.79-1.15-.97l-1.16-.26c-1.34-.29-2.04-1.01-2.04-2.04,0-1.32,1.15-2.23,2.88-2.23s2.68.85,2.82,2.12h-1.4c-.14-.59-.6-.97-1.41-.97Z" style="fill: #231f20;"/>
      <path d="M688.26,68.49c-.83,0-1.43.44-1.43,1,0,.44.35.75,1.16.94l1.19.27c1.36.31,2.03.97,2.03,2.01,0,1.34-1.14,2.3-3.04,2.3-1.78,0-2.83-.79-3.02-2.18h1.5c.13.68.63,1.01,1.51,1.01.95,0,1.56-.39,1.56-1.02,0-.48-.35-.79-1.15-.97l-1.16-.26c-1.34-.29-2.04-1.01-2.04-2.04,0-1.32,1.15-2.23,2.88-2.23s2.69.85,2.82,2.12h-1.4c-.13-.59-.6-.97-1.41-.97Z" style="fill: #231f20;"/>
      <path d="M279.33,93.99c0-.53.44-.97.97-.97s.97.44.97.97-.44.97-.97.97-.98-.44-.97-.97ZM280.31,87.62c.52,0,.97.44.97.97s-.44.97-.97.97-.98-.44-.97-.97c0-.53.43-.97.97-.97Z" style="fill: #231f20;"/>
      <path d="M286.17,87.44h1.43v1.2h.12c.26-.46.76-1.3,2.13-1.3,1.79,0,3.12,1.41,3.12,3.83s-1.3,3.85-3.1,3.85c-1.35,0-1.89-.82-2.15-1.3h-.09v3.94h-1.46v-10.22ZM289.54,93.77c1.29,0,1.95-1.13,1.95-2.62s-.65-2.57-1.95-2.57-1.93,1.02-1.93,2.57.69,2.62,1.93,2.62Z" style="fill: #231f20;"/>
      <path d="M296.71,90.55c.5-.03,1.63-.09,1.95-.1v-.6c0-.84-.52-1.32-1.51-1.32-.86,0-1.38.39-1.53.94h-1.46c.14-1.23,1.29-2.12,3.04-2.12,1.19,0,2.92.44,2.92,2.59v4.93h-1.42v-1.02h-.06c-.28.56-.97,1.18-2.2,1.18-1.41,0-2.51-.81-2.51-2.26,0-1.69,1.44-2.12,2.78-2.22ZM296.76,93.87c1.19,0,1.9-.8,1.9-1.68v-.68c-.33.02-1.4.09-1.75.12-.95.07-1.55.43-1.55,1.16s.58,1.08,1.4,1.08Z" style="fill: #231f20;"/>
      <path d="M304.5,88.49c-.83,0-1.43.44-1.43,1,0,.44.35.75,1.16.94l1.19.27c1.36.31,2.03.97,2.03,2.01,0,1.34-1.14,2.3-3.04,2.3-1.78,0-2.83-.79-3.02-2.18h1.49c.13.68.63,1.01,1.51,1.01.95,0,1.56-.39,1.56-1.02,0-.48-.35-.79-1.15-.97l-1.16-.26c-1.33-.29-2.04-1.01-2.04-2.04,0-1.32,1.15-2.23,2.88-2.23s2.68.85,2.82,2.12h-1.4c-.14-.59-.6-.97-1.41-.97Z" style="fill: #231f20;"/>
      <path d="M312.21,88.6h-1.51v4.08c0,.84.42.99.89.99.21,0,.53-.02.73-.03v1.26c-.19.03-.51.06-.9.06-1.15,0-2.18-.63-2.17-1.98v-4.38h-1.09v-1.17h1.09v-1.78h1.46v1.78h1.51v1.17Z" style="fill: #231f20;"/>
      <path d="M319.21,90.55c.5-.03,1.63-.09,1.95-.1v-.6c0-.84-.52-1.32-1.51-1.32-.86,0-1.38.39-1.53.94h-1.46c.14-1.23,1.29-2.12,3.04-2.12,1.19,0,2.92.44,2.92,2.59v4.93h-1.42v-1.02h-.06c-.28.56-.97,1.18-2.2,1.18-1.41,0-2.51-.81-2.51-2.26,0-1.69,1.44-2.12,2.78-2.22ZM319.26,93.87c1.19,0,1.9-.8,1.9-1.68v-.68c-.33.02-1.4.09-1.75.12-.95.07-1.55.43-1.55,1.16s.58,1.08,1.4,1.08Z" style="fill: #231f20;"/>
      <path d="M325.7,94.87h-1.46v-7.43h1.4v1.21h.09c.34-.79,1.07-1.31,2.19-1.31,1.52,0,2.53.97,2.53,2.8v4.73h-1.46v-4.55c0-1.07-.59-1.72-1.57-1.72s-1.73.67-1.73,1.86v4.41Z" style="fill: #231f20;"/>
      <path d="M331.75,91.17c0-2.41,1.33-3.83,3.12-3.83,1.38,0,1.88.84,2.14,1.3h.08v-3.68h1.46v9.91h-1.43v-1.16h-.11c-.27.48-.8,1.3-2.15,1.3-1.8,0-3.11-1.44-3.11-3.85ZM335.19,93.77c1.24,0,1.93-1.06,1.93-2.62s-.68-2.57-1.93-2.57-1.95,1.1-1.95,2.57.67,2.62,1.95,2.62Z" style="fill: #231f20;"/>
      <path d="M346.01,90.55c.5-.03,1.63-.09,1.95-.1v-.6c0-.84-.52-1.32-1.51-1.32-.86,0-1.38.39-1.53.94h-1.46c.14-1.23,1.29-2.12,3.04-2.12,1.18,0,2.92.44,2.92,2.59v4.93h-1.42v-1.02h-.06c-.28.56-.97,1.18-2.2,1.18-1.41,0-2.51-.81-2.51-2.26,0-1.69,1.44-2.12,2.78-2.22ZM346.07,93.87c1.19,0,1.9-.8,1.9-1.68v-.68c-.33.02-1.4.09-1.75.12-.95.07-1.55.43-1.55,1.16s.59,1.08,1.4,1.08Z" style="fill: #231f20;"/>
      <path d="M350.92,95.59h1.49c.14.71.8,1.05,1.77,1.05,1.16,0,1.89-.5,1.89-1.66v-1.46h-.1c-.26.48-.79,1.24-2.15,1.24-1.76,0-3.11-1.31-3.11-3.68s1.33-3.73,3.12-3.73c1.38,0,1.89.84,2.15,1.3h.1v-1.2h1.43v7.59c0,1.91-1.44,2.78-3.35,2.78s-3.11-.83-3.25-2.22ZM354.15,93.55c1.24,0,1.94-.91,1.94-2.45s-.68-2.52-1.94-2.52-1.95,1.1-1.95,2.52.67,2.45,1.95,2.45Z" style="fill: #231f20;"/>
      <path d="M358.81,91.2c0-2.28,1.37-3.86,3.43-3.86,1.69,0,3.3,1.05,3.3,3.73v.52h-5.29c.04,1.42.87,2.22,2.1,2.22.83,0,1.36-.36,1.61-.82h1.48c-.33,1.21-1.47,2.02-3.1,2.02-2.19,0-3.54-1.51-3.54-3.82ZM364.11,90.5c0-1.13-.73-1.96-1.85-1.96-1.17,0-1.93.91-2,1.96h3.85Z" style="fill: #231f20;"/>
      <path d="M368.31,94.87h-1.46v-7.43h1.4v1.21h.09c.34-.79,1.07-1.31,2.19-1.31,1.52,0,2.53.97,2.53,2.8v4.73h-1.46v-4.55c0-1.07-.59-1.72-1.57-1.72s-1.73.67-1.73,1.86v4.41Z" style="fill: #231f20;"/>
      <path d="M374.36,91.17c0-2.41,1.33-3.83,3.12-3.83,1.38,0,1.88.84,2.14,1.3h.08v-3.68h1.46v9.91h-1.43v-1.16h-.11c-.27.48-.8,1.3-2.15,1.3-1.8,0-3.11-1.44-3.11-3.85ZM377.8,93.77c1.24,0,1.94-1.06,1.94-2.62s-.68-2.57-1.94-2.57-1.95,1.1-1.95,2.57.67,2.62,1.95,2.62Z" style="fill: #231f20;"/>
      <path d="M385.34,90.55c.5-.03,1.63-.09,1.95-.1v-.6c0-.84-.52-1.32-1.51-1.32-.86,0-1.38.39-1.53.94h-1.46c.14-1.23,1.29-2.12,3.04-2.12,1.19,0,2.92.44,2.92,2.59v4.93h-1.42v-1.02h-.06c-.28.56-.97,1.18-2.2,1.18-1.41,0-2.51-.81-2.51-2.26,0-1.69,1.44-2.12,2.78-2.22ZM385.4,93.87c1.19,0,1.9-.8,1.9-1.68v-.68c-.33.02-1.4.09-1.75.12-.95.07-1.55.43-1.55,1.16s.59,1.08,1.4,1.08Z" style="fill: #231f20;"/>
    </g>
    <g>
      <path d="M280.77,108.31h1.5v1.75h2.88v-1.75h1.52v5.95h-5.91v-5.95ZM281.87,115.55h8.24v4.34h-1.53v-3.12h-6.71v-1.22ZM285.16,113.05v-1.8h-2.88v1.8h2.88ZM290.11,110.63h1.73v1.24h-1.73v3.11h-1.53v-7.44h1.53v3.09Z" style="fill: #f15a26;"/>
      <path d="M299.24,109.97h-6.9v-1.2h2.77v-1.33h1.51v1.33h2.62v1.2ZM295.85,110.46c1.68,0,2.88.93,2.89,2.31,0,1.38-1.21,2.29-2.89,2.29s-2.87-.91-2.86-2.29c0-1.38,1.17-2.31,2.86-2.31ZM298.52,115.59c2.61,0,4.22.79,4.22,2.15s-1.61,2.15-4.22,2.14c-2.62,0-4.23-.8-4.23-2.14s1.61-2.15,4.23-2.15ZM295.85,113.92c.87,0,1.47-.43,1.48-1.16,0-.73-.61-1.17-1.48-1.17-.88,0-1.45.44-1.45,1.17,0,.73.57,1.16,1.45,1.16ZM298.52,118.72c1.65,0,2.59-.34,2.6-.98,0-.66-.95-.99-2.6-.99-1.67,0-2.64.33-2.63.99,0,.64.96.99,2.63.98ZM299.32,112.79h1.84v-1.22h-1.82v-1.23h1.82v-2.8h1.52v7.91h-1.52v-1.44h-1.84v-1.22Z" style="fill: #f15a26;"/>
      <path d="M315.57,114.67h-11.28v-1.21h4.9v-1.19h-3.51v-4.18h8.53v1.19h-7.02v1.79h7.09v1.2h-3.59v1.19h4.9v1.21ZM309.9,115.38c2.67,0,4.28.82,4.29,2.26,0,1.44-1.61,2.25-4.29,2.26-2.68,0-4.3-.82-4.3-2.26s1.62-2.26,4.3-2.26ZM309.9,118.72c1.78,0,2.76-.36,2.77-1.08,0-.71-.99-1.09-2.77-1.09s-2.77.38-2.76,1.09c0,.72.96,1.09,2.76,1.08Z" style="fill: #f15a26;"/>
      <path d="M319.43,117.06h2.52v-3.95h1.52v3.95h1.57v-3.95h1.49v3.95h4.16v1.25h-11.27v-1.25ZM329.58,109.93c0,1.53,0,3.2-.45,5.62l-1.49-.15c.43-2.29.43-3.98.43-5.48v-.04h-7.48v-1.22h9.01v1.26Z" style="fill: #f15a26;"/>
      <path d="M331.4,114.34h11.27v1.25h-4.91v4.3h-1.5v-4.3h-4.85v-1.25ZM342.21,112.03l-.6,1.23c-2.1-.31-3.77-1.34-4.57-2.74-.81,1.4-2.48,2.43-4.56,2.74l-.6-1.23c2.62-.34,4.36-1.91,4.36-3.47v-.63h1.6v.63c0,1.55,1.75,3.13,4.38,3.47Z" style="fill: #f15a26;"/>
      <path d="M347.81,120.17h-1.52l3.19-11.86h1.52l-3.19,11.86Z" style="fill: #f15a26;"/>
      <path d="M355.13,108.78h3.71c2.28,0,3.49,1.39,3.49,3.28s-1.23,3.27-3.52,3.27h-1.91v3.35h-1.78v-9.91ZM358.57,113.87c1.33,0,1.94-.75,1.94-1.81s-.6-1.79-1.94-1.79h-1.66v3.6h1.67Z" style="fill: #f15a26;"/>
      <path d="M363.55,111.25h1.69v1.24h.08c.27-.86.99-1.34,1.83-1.34.19,0,.47.02.63.05v1.6c-.15-.05-.52-.1-.81-.1-.96,0-1.68.67-1.68,1.61v4.38h-1.74v-7.43Z" style="fill: #f15a26;"/>
      <path d="M368.12,115c0-2.3,1.39-3.84,3.56-3.84s3.56,1.54,3.56,3.84-1.38,3.83-3.56,3.83-3.56-1.53-3.56-3.83ZM371.68,117.44c1.19,0,1.78-1.08,1.78-2.44s-.59-2.46-1.78-2.46-1.8,1.1-1.8,2.46.59,2.44,1.8,2.44Z" style="fill: #f15a26;"/>
      <path d="M380.2,112.6h-1.53v6.09h-1.74v-6.09h-1.11v-1.34h1.11v-.71c0-1.45.89-2.24,2.32-2.24.41,0,.79.04,1.1.11v1.37c-.28-.03-.49-.04-.62-.04-.71,0-1.06.28-1.06.95v.55h1.53v1.34Z" style="fill: #f15a26;"/>
      <path d="M380.72,115.01c0-2.29,1.39-3.86,3.51-3.86,1.82,0,3.4,1.14,3.4,3.75v.54h-5.18c.02,1.28.77,2.03,1.9,2.03.76,0,1.28-.33,1.5-.78h1.7c-.31,1.29-1.5,2.13-3.23,2.13-2.24,0-3.61-1.49-3.61-3.82ZM385.95,114.27c0-1.01-.69-1.75-1.69-1.75s-1.76.8-1.81,1.75h3.5Z" style="fill: #f15a26;"/>
      <path d="M391.74,112.45c-.75,0-1.29.37-1.29.88,0,.39.3.68,1.06.85l1.26.27c1.4.3,2.08.95,2.08,2.01,0,1.4-1.22,2.37-3.16,2.37s-3.01-.84-3.19-2.26h1.77c.11.63.6.94,1.42.94s1.39-.34,1.39-.89c0-.43-.34-.71-1.08-.87l-1.2-.25c-1.37-.29-2.09-1.01-2.08-2.07,0-1.37,1.18-2.27,3-2.27s2.86.87,2.99,2.21h-1.65c-.11-.56-.57-.92-1.31-.92Z" style="fill: #f15a26;"/>
      <path d="M398.94,112.45c-.75,0-1.29.37-1.29.88,0,.39.3.68,1.06.85l1.26.27c1.4.3,2.08.95,2.08,2.01,0,1.4-1.22,2.37-3.16,2.37s-3.01-.84-3.19-2.26h1.77c.11.63.6.94,1.42.94s1.39-.34,1.39-.89c0-.43-.34-.71-1.08-.87l-1.2-.25c-1.37-.29-2.09-1.01-2.08-2.07,0-1.37,1.18-2.27,3-2.27s2.86.87,2.99,2.21h-1.65c-.11-.56-.57-.92-1.31-.92Z" style="fill: #f15a26;"/>
      <path d="M402.93,115c0-2.3,1.39-3.84,3.56-3.84s3.56,1.54,3.56,3.84-1.38,3.83-3.56,3.83-3.56-1.53-3.56-3.83ZM406.5,117.44c1.19,0,1.78-1.08,1.78-2.44s-.59-2.46-1.78-2.46-1.8,1.1-1.8,2.46.59,2.44,1.8,2.44Z" style="fill: #f15a26;"/>
      <path d="M411.27,111.25h1.69v1.24h.08c.27-.86.99-1.34,1.83-1.34.19,0,.47.02.63.05v1.6c-.15-.05-.52-.1-.81-.1-.96,0-1.68.67-1.68,1.61v4.38h-1.74v-7.43Z" style="fill: #f15a26;"/>
      <path d="M419.66,108.78h1.78v4.2h4.61v-4.2h1.79v9.91h-1.79v-4.21h-4.61v4.21h-1.78v-9.91Z" style="fill: #f15a26;"/>
      <path d="M429.59,121.44v-1.4c.22.02.51.02.74.02.43,0,.78-.03,1.07-.83l.15-.4-2.7-7.58h1.85l1.72,5.62h.08l1.73-5.62h1.85l-2.98,8.33c-.43,1.19-1.21,1.88-2.61,1.88-.35,0-.68,0-.9-.03Z" style="fill: #f15a26;"/>
      <path d="M436.46,115.01c0-2.29,1.39-3.86,3.51-3.86,1.82,0,3.4,1.14,3.4,3.75v.54h-5.18c.02,1.28.77,2.03,1.9,2.03.76,0,1.28-.33,1.5-.78h1.7c-.31,1.29-1.5,2.13-3.23,2.13-2.24,0-3.61-1.49-3.61-3.82ZM441.69,114.27c0-1.01-.69-1.75-1.69-1.75s-1.76.8-1.81,1.75h3.5Z" style="fill: #f15a26;"/>
      <path d="M444.26,115c0-2.3,1.39-3.84,3.56-3.84s3.56,1.54,3.56,3.84-1.38,3.83-3.56,3.83-3.56-1.53-3.56-3.83ZM447.83,117.44c1.19,0,1.78-1.08,1.78-2.44s-.59-2.46-1.78-2.46-1.8,1.1-1.8,2.46.59,2.44,1.8,2.44Z" style="fill: #f15a26;"/>
      <path d="M454.34,118.68h-1.74v-7.43h1.66v1.26h.09c.34-.83,1.1-1.36,2.21-1.36,1.53,0,2.54,1.02,2.54,2.8v4.73h-1.74v-4.46c0-.99-.54-1.59-1.45-1.59s-1.58.62-1.58,1.7v4.35Z" style="fill: #f15a26;"/>
      <path d="M460.52,119.35h1.74c.13.66.74.96,1.62.96,1.05,0,1.73-.45,1.73-1.55v-1.41h-.09c-.27.54-.86,1.23-2.14,1.23-1.72,0-3.07-1.25-3.07-3.67s1.35-3.75,3.07-3.75c1.31,0,1.86.79,2.14,1.32h.09v-1.22h1.72v7.55c0,1.9-1.47,2.82-3.48,2.82s-3.21-.88-3.33-2.28ZM463.87,117.21c1.12,0,1.76-.85,1.76-2.27s-.63-2.35-1.76-2.35-1.77.99-1.77,2.35.61,2.27,1.77,2.27Z" style="fill: #f15a26;"/>
      <path d="M468.96,118.68v-9.91h3.41c2.96,0,4.74,1.86,4.74,4.94s-1.78,4.96-4.8,4.96h-3.35ZM472.22,117.14c2.07,0,3.12-1.14,3.12-3.42s-1.05-3.4-3.07-3.4h-1.54v6.82h1.49Z" style="fill: #f15a26;"/>
      <path d="M478.15,115c0-2.3,1.39-3.84,3.56-3.84s3.56,1.54,3.56,3.84-1.38,3.83-3.56,3.83-3.56-1.53-3.56-3.83ZM481.72,117.44c1.19,0,1.78-1.08,1.78-2.44s-.59-2.46-1.78-2.46-1.8,1.1-1.8,2.46.59,2.44,1.8,2.44Z" style="fill: #f15a26;"/>
      <path d="M488.23,118.68h-1.74v-7.43h1.66v1.26h.09c.34-.83,1.1-1.36,2.21-1.36,1.53,0,2.54,1.02,2.54,2.8v4.73h-1.74v-4.46c0-.99-.54-1.59-1.45-1.59s-1.58.62-1.58,1.7v4.35Z" style="fill: #f15a26;"/>
      <path d="M494.41,119.35h1.74c.13.66.74.96,1.62.96,1.05,0,1.73-.45,1.73-1.55v-1.41h-.09c-.27.54-.86,1.23-2.14,1.23-1.72,0-3.07-1.25-3.07-3.67s1.35-3.75,3.07-3.75c1.31,0,1.86.79,2.14,1.32h.09v-1.22h1.72v7.55c0,1.9-1.47,2.82-3.48,2.82s-3.21-.88-3.33-2.28ZM497.76,117.21c1.12,0,1.76-.85,1.76-2.27s-.63-2.35-1.76-2.35-1.77.99-1.77,2.35.61,2.27,1.77,2.27Z" style="fill: #f15a26;"/>
      <path d="M506.03,108.78h3.71c2.28,0,3.49,1.39,3.49,3.28s-1.23,3.27-3.52,3.27h-1.91v3.35h-1.78v-9.91ZM509.48,113.87c1.33,0,1.93-.75,1.93-1.81s-.6-1.79-1.94-1.79h-1.66v3.6h1.67Z" style="fill: #f15a26;"/>
      <path d="M516.74,114.34c.52-.03,1.58-.08,1.9-.1v-.6c0-.73-.47-1.16-1.35-1.16-.78,0-1.25.35-1.38.88h-1.69c.13-1.26,1.26-2.21,3.12-2.21,1.41,0,3.03.58,3.03,2.56v4.97h-1.67v-1.02h-.06c-.32.62-1.02,1.17-2.18,1.17-1.42,0-2.49-.77-2.49-2.24,0-1.68,1.39-2.17,2.77-2.26ZM516.91,117.55c1.06,0,1.74-.7,1.74-1.53v-.61c-.32.01-1.29.08-1.63.11-.83.06-1.35.41-1.35,1.06s.52.98,1.25.98Z" style="fill: #f15a26;"/>
      <path d="M521.88,111.25h1.69v1.24h.08c.27-.86.99-1.34,1.83-1.34.19,0,.47.02.63.05v1.6c-.15-.05-.52-.1-.81-.1-.96,0-1.68.67-1.68,1.61v4.38h-1.74v-7.43Z" style="fill: #f15a26;"/>
      <path d="M527.01,108.78h1.74v5.47h.12l2.68-2.99h2.03l-2.88,3.2,3.06,4.23h-2.08l-2.29-3.18-.64.68v2.5h-1.74v-9.91Z" style="fill: #f15a26;"/>
      <path d="M540.02,108.49h1.63c-.98,1.28-1.74,3.85-1.74,6.15s.76,4.87,1.74,6.15h-1.63c-1.27-1.72-1.92-3.73-1.92-6.15s.64-4.43,1.92-6.15Z" style="fill: #f15a26;"/>
      <path d="M546.76,118.68h-1.79v-8.17h-.06l-2.32,1.48v-1.63l2.46-1.59h1.71v9.91Z" style="fill: #f15a26;"/>
      <path d="M549.05,116h1.73c.06.81.82,1.38,1.76,1.38,1.11,0,1.91-.8,1.91-1.9s-.82-1.93-1.96-1.94c-.77,0-1.33.27-1.64.85h-1.64l.59-5.61h5.85v1.49h-4.38l-.3,2.63h.09c.39-.44,1.11-.75,1.93-.75,1.84,0,3.2,1.37,3.2,3.28s-1.49,3.39-3.63,3.39c-1.97,0-3.43-1.18-3.49-2.83Z" style="fill: #f15a26;"/>
      <path d="M568.4,115.15h-4.77v2.13h-1.5v-2.13h-5.03v-1.21h11.3v1.21ZM558.47,116.26h1.51v2.17h7.18v1.23h-8.69v-3.41ZM558.57,107.93h1.5v1.39h5.34v-1.39h1.51v5.03h-8.36v-5.03ZM565.41,111.76v-1.3h-5.34v1.3h5.34Z" style="fill: #f15a26;"/>
      <path d="M570.71,120.79h-1.63c.98-1.28,1.74-3.86,1.74-6.15s-.76-4.87-1.74-6.15h1.63c1.27,1.72,1.92,3.73,1.92,6.15s-.64,4.43-1.92,6.15Z" style="fill: #f15a26;"/>
    </g>
  </g>
  <path d="M354.18,209.95h-5.63v4.7h-1.72v-4.7h-5.56v-1.4h12.91v1.4ZM342.84,201.28h9.75v5.62h-9.75v-5.62ZM350.86,205.54v-2.87h-6.32v2.87h6.32Z" style="fill: #231f20;"/>
  <g>
    <path d="M385.96,203.54c-1.86,0-3.15,1.42-3.15,3.98s1.31,3.98,3.15,3.98c1.34,0,2.43-.75,2.7-2.07h2.04c-.31,2.17-2.09,3.9-4.77,3.9-2.98,0-5.16-2.17-5.16-5.8s2.21-5.8,5.16-5.8c2.5,0,4.43,1.45,4.77,3.96h-2.04c-.23-1.36-1.33-2.14-2.7-2.14Z" style="fill: #231f20;"/>
    <path d="M394.34,213.16h-2v-11.29h2v11.29Z" style="fill: #231f20;"/>
    <path d="M395.88,208.97c0-2.63,1.59-4.38,4.05-4.38s4.05,1.75,4.05,4.38-1.58,4.37-4.05,4.37-4.05-1.75-4.05-4.37ZM401.98,208.95c0-1.54-.67-2.79-2.03-2.79s-2.06,1.25-2.06,2.79.67,2.79,2.06,2.79,2.03-1.23,2.03-2.79Z" style="fill: #231f20;"/>
    <path d="M408.84,206.07c-.86,0-1.48.42-1.47,1-.02.44.34.76,1.2.97l1.43.3c1.61.36,2.37,1.09,2.39,2.31-.02,1.59-1.4,2.7-3.62,2.7s-3.43-.97-3.63-2.59h2.03c.12.72.69,1.08,1.61,1.08s1.59-.39,1.59-1.01c0-.48-.39-.8-1.23-.98l-1.36-.3c-1.58-.31-2.39-1.14-2.39-2.35,0-1.56,1.34-2.59,3.42-2.59s3.27.98,3.41,2.53h-1.89c-.12-.64-.65-1.04-1.5-1.04Z" style="fill: #231f20;"/>
    <path d="M413.76,202.4c0-.59.53-1.08,1.15-1.08s1.15.48,1.15,1.08-.51,1.09-1.15,1.09-1.15-.48-1.15-1.09ZM413.9,204.7h2v8.47h-2v-8.47Z" style="fill: #231f20;"/>
    <path d="M419.79,213.16h-2v-8.47h1.9v1.43h.11c.39-.95,1.25-1.54,2.51-1.54,1.76,0,2.92,1.15,2.9,3.18v5.4h-1.98v-5.08c0-1.14-.61-1.81-1.65-1.81s-1.79.7-1.79,1.93v4.96Z" style="fill: #231f20;"/>
    <path d="M427.01,213.93h1.98c.14.73.84,1.09,1.86,1.09,1.19,0,1.96-.51,1.96-1.76v-1.62h-.09c-.31.62-.98,1.4-2.45,1.4-1.95,0-3.49-1.42-3.49-4.18s1.54-4.27,3.51-4.27c1.5,0,2.12.89,2.43,1.5h.09v-1.39h1.96v8.61c0,2.17-1.67,3.21-3.96,3.21s-3.66-1-3.8-2.59ZM432.82,208.89c0-1.61-.72-2.68-2.01-2.68s-2.01,1.14-2.01,2.68.7,2.59,2.01,2.59,2.01-.97,2.01-2.59Z" style="fill: #231f20;"/>
    <path d="M443.22,208.22c.58-.04,1.8-.11,2.17-.12v-.67c0-.84-.55-1.33-1.53-1.33-.89,0-1.43.41-1.59,1.01h-1.92c.14-1.43,1.43-2.53,3.56-2.53,1.61,0,3.46.66,3.46,2.92v5.66h-1.9v-1.17h-.06c-.37.72-1.17,1.34-2.5,1.34-1.62,0-2.84-.89-2.84-2.56,0-1.9,1.57-2.46,3.15-2.56ZM443.42,211.87c1.2,0,1.98-.8,1.98-1.75v-.7l-1.87.12c-.95.08-1.54.47-1.54,1.22s.59,1.11,1.43,1.11Z" style="fill: #231f20;"/>
    <path d="M451.23,213.16h-2v-8.47h1.9v1.43h.11c.39-.95,1.25-1.54,2.51-1.54,1.76,0,2.92,1.15,2.9,3.18v5.4h-1.98v-5.08c0-1.14-.61-1.81-1.65-1.81s-1.79.7-1.79,1.93v4.96Z" style="fill: #231f20;"/>
    <path d="M458.21,208.94c0-2.82,1.54-4.35,3.51-4.35,1.5,0,2.12.89,2.42,1.5h.08v-4.21h1.98v11.29h-1.95v-1.34h-.11c-.31.62-.97,1.5-2.43,1.5-2,0-3.49-1.59-3.49-4.38ZM464.26,208.92c0-1.64-.72-2.71-2.01-2.71s-2.01,1.14-2.01,2.71.7,2.76,2.01,2.76,2.01-1.11,2.01-2.76Z" style="fill: #231f20;"/>
    <path d="M471.35,204.7h2.03l1.5,5.96h.08l1.51-5.96h2.01l1.53,5.93h.08l1.48-5.93h2.03l-2.4,8.47h-2.07l-1.59-5.74h-.11l-1.59,5.74h-2.07l-2.4-8.47Z" style="fill: #231f20;"/>
    <path d="M484.84,204.7h1.93v1.4h.09c.3-.97,1.12-1.53,2.09-1.53.22,0,.53.02.72.05v1.84c-.17-.06-.59-.12-.92-.12-1.11,0-1.92.76-1.92,1.84v4.99h-2v-8.47Z" style="fill: #231f20;"/>
    <path d="M493.46,208.22c.58-.04,1.8-.11,2.17-.12v-.67c0-.84-.55-1.33-1.53-1.33-.89,0-1.44.41-1.59,1.01h-1.92c.14-1.43,1.43-2.53,3.56-2.53,1.61,0,3.46.66,3.46,2.92v5.66h-1.9v-1.17h-.06c-.37.72-1.17,1.34-2.5,1.34-1.62,0-2.84-.89-2.84-2.56,0-1.9,1.57-2.46,3.15-2.56ZM493.67,211.87c1.2,0,1.98-.8,1.98-1.75v-.7l-1.87.12c-.95.08-1.54.47-1.54,1.22s.59,1.11,1.43,1.11Z" style="fill: #231f20;"/>
    <path d="M499.48,204.7h1.95v1.39h.12c.31-.61.94-1.5,2.43-1.5,1.95,0,3.49,1.53,3.49,4.35s-1.5,4.38-3.49,4.38c-1.47,0-2.12-.87-2.43-1.5h-.08v4.52h-2v-11.65ZM503.44,211.68c1.31,0,2.01-1.15,2.01-2.76s-.69-2.71-2.01-2.71-2.01,1.08-2.01,2.71.72,2.76,2.01,2.76Z" style="fill: #231f20;"/>
    <path d="M514.16,209.28h-5.08v-1.64h5.08v1.64Z" style="fill: #231f20;"/>
    <path d="M521.52,204.7h1.98v8.47h-1.92v-1.5h-.09c-.39.94-1.28,1.61-2.54,1.61-1.67,0-2.82-1.15-2.84-3.18v-5.4h2v5.08c0,1.08.64,1.76,1.61,1.76.87,0,1.81-.64,1.81-1.93v-4.91Z" style="fill: #231f20;"/>
    <path d="M525.4,204.7h1.95v1.39h.12c.31-.61.94-1.5,2.43-1.5,1.95,0,3.49,1.53,3.49,4.35s-1.5,4.38-3.49,4.38c-1.47,0-2.12-.87-2.43-1.5h-.08v4.52h-2v-11.65ZM529.36,211.68c1.31,0,2.01-1.15,2.01-2.76s-.69-2.71-2.01-2.71-2.01,1.08-2.01,2.71.72,2.76,2.01,2.76Z" style="fill: #231f20;"/>
    <path d="M541.44,201.39h1.87c-1.08,1.54-2.15,4.68-2.15,7.47s1.08,5.93,2.15,7.49h-1.87c-1.47-2.11-2.34-4.54-2.34-7.49s.87-5.38,2.34-7.47Z" style="fill: #231f20;"/>
    <path d="M544.72,210.11h1.98c.06.92.92,1.58,2,1.58,1.26,0,2.17-.92,2.17-2.17s-.94-2.21-2.23-2.21c-.87-.02-1.51.3-1.87.97h-1.89l.69-6.39h6.67v1.7h-5.01l-.34,2.99h.11c.44-.5,1.26-.86,2.18-.86,2.11,0,3.65,1.58,3.65,3.74s-1.7,3.87-4.13,3.87c-2.26,0-3.91-1.34-3.98-3.21Z" style="fill: #231f20;"/>
    <path d="M566.94,209.14h-5.44v2.43h-1.71v-2.43h-5.72v-1.39h12.88v1.39ZM565.52,214.27h-9.9v-3.88h1.72v2.48h8.19v1.4ZM557.46,202.5h6.08v-1.59h1.72v5.74h-9.51v-5.74h1.71v1.59ZM563.54,205.27v-1.48h-6.08v1.48h6.08Z" style="fill: #231f20;"/>
    <path d="M569.72,216.34h-1.87c1.08-1.56,2.15-4.69,2.15-7.49s-1.08-5.93-2.15-7.47h1.87c1.47,2.09,2.34,4.54,2.34,7.47s-.87,5.38-2.34,7.49Z" style="fill: #231f20;"/>
  </g>
  <path d="M279.47,209.96v-6.35h-.99v-1.41h6.46v1.41h-.99v6.18c.43-.03.85-.07,1.23-.12l.12,1.29c-2.18.38-5.07.43-6.9.44l-.2-1.44c.38,0,.81,0,1.28,0ZM282.37,209.88v-6.27h-1.35v6.32c.44-.01.9-.03,1.35-.04ZM284.62,207.36h1.56v-1.44h-1.56v-1.42h1.56v-3.64h1.62v13.11h-1.62v-5.19h-1.56v-1.42ZM290.61,214.66h-1.67v-14.11h1.67v14.11Z" style="fill: #231f20;"/>
  <path d="M295.97,210.71v-1.3c-1.59-.25-2.62-1.22-2.62-2.56,0-1.59,1.4-2.65,3.46-2.65s3.51,1.06,3.51,2.65c0,1.33-1.04,2.3-2.62,2.56v1.25c1.24-.06,2.49-.16,3.67-.31l.13,1.3c-3.11.52-6.48.56-9.03.56l-.24-1.43c1.12-.01,2.4-.02,3.73-.05ZM292.54,202.18h3.44v-1.59h1.74v1.59h3.41v1.37h-8.59v-1.37ZM296.82,208.13c1.11,0,1.85-.47,1.85-1.29s-.75-1.31-1.85-1.31-1.83.5-1.82,1.31c-.01.82.75,1.3,1.82,1.29ZM303.94,214.66h-1.73v-14.11h1.73v14.11Z" style="fill: #231f20;"/>
  <path d="M317.34,207.3h-6.8v-5.87h6.8v5.87ZM315.98,210.73h-4.03v-1.3h4.07v-1.24h1.74v1.24h4.08v1.3h-4.04c.16,1.09,1.87,2.3,4.57,2.57l-.59,1.33c-2.29-.24-4.03-1.14-4.89-2.32-.87,1.19-2.62,2.07-4.92,2.32l-.6-1.33c2.71-.24,4.44-1.45,4.6-2.57ZM315.62,205.94v-3.14h-3.38v3.14h3.38ZM319.83,200.55h1.72v8.04h-1.72v-8.04Z" style="fill: #231f20;"/>
  <path d="M334.64,211.17h-6.69v-9.25h6.69v9.25ZM332.9,209.78v-6.49h-3.25v6.49h3.25ZM336.77,200.55h1.74v5.42h2.18v1.46h-2.18v7.22h-1.74v-14.11Z" style="fill: #231f20;"/>
  <path d="M355.89,201.78h6.65v5.3h-4.85v2.84c2.22-.01,4.14-.12,6.34-.49l.15,1.42c-2.4.41-4.51.5-7.05.5h-1.24v-5.65h4.87v-2.51h-4.88v-1.41ZM366.88,214.7h-1.73v-14.14h1.73v14.14Z" style="fill: #231f20;"/>
</svg>